<mxfile host="app.diagrams.net" modified="2023-06-16T02:14:45.524Z" agent="Mozilla/5.0 (Macintosh; Intel Mac OS X 10_15_7) AppleWebKit/537.36 (KHTML, like Gecko) Chrome/113.0.0.0 Safari/537.36" version="21.4.0" etag="A16d1mkRqi9HWOjA8hH_" type="github">
  <diagram name="第 1 页" id="HeD2XpfvVx3oqUgyRu6t">
    <mxGraphModel>
      <root>
        <mxCell id="0" />
        <mxCell id="1" parent="0" />
      </root>
    </mxGraphModel>
  </diagram>
</mxfile>
